<svg width="32" height="33" viewBox="0 0 32 33" fill="none" xmlns="http://www.w3.org/2000/svg">
<g clip-path="url(#clip0_252_706)">
<path fill-rule="evenodd" clip-rule="evenodd" d="M16.0003 25.8161C16.3269 25.8161 16.6421 25.936 16.8862 26.153C17.1302 26.37 17.2861 26.6691 17.3243 26.9934L17.3337 27.1494V28.4827C17.3333 28.8226 17.2032 29.1495 16.9699 29.3966C16.7366 29.6437 16.4177 29.7924 16.0785 29.8123C15.7392 29.8322 15.4052 29.7218 15.1445 29.5037C14.8839 29.2856 14.7165 28.9762 14.6763 28.6387L14.667 28.4827V27.1494C14.667 26.7958 14.8075 26.4567 15.0575 26.2066C15.3076 25.9566 15.6467 25.8161 16.0003 25.8161ZM9.40033 23.0827C9.65029 23.3328 9.79071 23.6719 9.79071 24.0254C9.79071 24.379 9.65029 24.718 9.40033 24.9681L8.45766 25.9107C8.33466 26.0381 8.18754 26.1397 8.02487 26.2095C7.86219 26.2794 7.68723 26.3162 7.51019 26.3177C7.33315 26.3193 7.15758 26.2856 6.99372 26.2185C6.82986 26.1515 6.68099 26.0525 6.5558 25.9273C6.43061 25.8021 6.3316 25.6532 6.26456 25.4894C6.19752 25.3255 6.16379 25.1499 6.16533 24.9729C6.16686 24.7958 6.20365 24.6209 6.27352 24.4582C6.3434 24.2955 6.44498 24.1484 6.57233 24.0254L7.51499 23.0827C7.76503 22.8328 8.10411 22.6924 8.45766 22.6924C8.81121 22.6924 9.15029 22.8328 9.40033 23.0827ZM24.4857 23.0827L25.4283 24.0254C25.6712 24.2769 25.8056 24.6137 25.8026 24.9633C25.7995 25.3129 25.6593 25.6473 25.4121 25.8945C25.1649 26.1417 24.8305 26.2819 24.4809 26.285C24.1313 26.288 23.7945 26.1536 23.543 25.9107L22.6003 24.9681C22.3575 24.7166 22.2231 24.3798 22.2261 24.0302C22.2291 23.6806 22.3694 23.3462 22.6166 23.099C22.8638 22.8518 23.1982 22.7116 23.5478 22.7085C23.8974 22.7055 24.2342 22.8399 24.4857 23.0827ZM16.823 3.14941C17.4731 3.14927 18.1008 3.3866 18.5882 3.81678C19.0756 4.24696 19.389 4.84035 19.4697 5.48541L19.9763 9.53875C21.5066 10.4152 22.7043 11.7727 23.3834 13.4001C24.0625 15.0276 24.1848 16.8338 23.7313 18.5379C23.2778 20.2421 22.274 21.7486 20.8759 22.8234C19.4778 23.8981 17.7638 24.4808 16.0003 24.4808C14.2369 24.4808 12.5228 23.8981 11.1247 22.8234C9.72664 21.7486 8.72281 20.2421 8.26935 18.5379C7.81588 16.8338 7.93819 15.0276 8.61726 13.4001C9.29633 11.7727 10.4941 10.4152 12.0243 9.53875L12.531 5.48541C12.6116 4.84035 12.9251 4.24696 13.4125 3.81678C13.8998 3.3866 14.5276 3.14927 15.1777 3.14941H16.823ZM5.33366 15.1494C5.68728 15.1494 6.02642 15.2899 6.27647 15.5399C6.52652 15.79 6.66699 16.1291 6.66699 16.4827C6.66699 16.8364 6.52652 17.1755 6.27647 17.4256C6.02642 17.6756 5.68728 17.8161 5.33366 17.8161H4.00033C3.6467 17.8161 3.30756 17.6756 3.05752 17.4256C2.80747 17.1755 2.66699 16.8364 2.66699 16.4827C2.66699 16.1291 2.80747 15.79 3.05752 15.5399C3.30756 15.2899 3.6467 15.1494 4.00033 15.1494H5.33366ZM28.0003 15.1494C28.3539 15.1494 28.6931 15.2899 28.9431 15.5399C29.1932 15.79 29.3337 16.1291 29.3337 16.4827C29.3337 16.8364 29.1932 17.1755 28.9431 17.4256C28.6931 17.6756 28.3539 17.8161 28.0003 17.8161H26.667C26.3134 17.8161 25.9742 17.6756 25.7242 17.4256C25.4741 17.1755 25.3337 16.8364 25.3337 16.4827C25.3337 16.1291 25.4741 15.79 25.7242 15.5399C25.9742 15.2899 26.3134 15.1494 26.667 15.1494H28.0003ZM25.4283 7.05608C25.6783 7.30612 25.8187 7.6452 25.8187 7.99875C25.8187 8.3523 25.6783 8.69138 25.4283 8.94141L24.4857 9.88408C24.3627 10.0114 24.2155 10.113 24.0529 10.1829C23.8902 10.2528 23.7152 10.2895 23.5382 10.2911C23.3612 10.2926 23.1856 10.2589 23.0217 10.1918C22.8579 10.1248 22.709 10.0258 22.5838 9.90061C22.4586 9.77542 22.3596 9.62655 22.2926 9.46269C22.2255 9.29882 22.1918 9.12325 22.1933 8.94621C22.1949 8.76917 22.2316 8.59421 22.3015 8.43154C22.3714 8.26887 22.473 8.12174 22.6003 7.99875L23.543 7.05608C23.793 6.80612 24.1321 6.6657 24.4857 6.6657C24.8392 6.6657 25.1783 6.80612 25.4283 7.05608ZM8.45766 7.05608L9.40033 7.99875C9.6372 8.25135 9.76651 8.5862 9.76088 8.93244C9.75526 9.27868 9.61515 9.60916 9.3702 9.85393C9.12525 10.0987 8.79468 10.2386 8.44843 10.244C8.10218 10.2493 7.76743 10.1198 7.51499 9.88275L6.57233 8.94008C6.33545 8.68748 6.20615 8.35263 6.21177 8.00639C6.21739 7.66014 6.3575 7.32967 6.60245 7.08489C6.8474 6.84012 7.17797 6.70024 7.52422 6.69486C7.87047 6.68949 8.20523 6.81903 8.45766 7.05608ZM16.823 5.81608H15.1777L14.8443 8.48275H17.1563L16.823 5.81608Z" fill="black"/>
</g>
<defs>
<clipPath id="clip0_252_706">
<rect width="32" height="32" fill="white" transform="translate(0 0.482422)"/>
</clipPath>
</defs>
</svg>
