<svg width="32" height="25" viewBox="0 0 32 25" fill="none" xmlns="http://www.w3.org/2000/svg">
<path d="M14 24.4824C14 24.4824 12 24.4824 12 22.4824C12 20.4824 14 14.4824 22 14.4824C30 14.4824 32 20.4824 32 22.4824C32 24.4824 30 24.4824 30 24.4824H14ZM22 12.4824C23.5913 12.4824 25.1174 11.8503 26.2426 10.7251C27.3679 9.59984 28 8.07372 28 6.48242C28 4.89112 27.3679 3.365 26.2426 2.23978C25.1174 1.11456 23.5913 0.482422 22 0.482422C20.4087 0.482422 18.8826 1.11456 17.7574 2.23978C16.6321 3.365 16 4.89112 16 6.48242C16 8.07372 16.6321 9.59984 17.7574 10.7251C18.8826 11.8503 20.4087 12.4824 22 12.4824ZM10.432 24.4824C10.1356 23.858 9.98779 23.1735 10 22.4824C10 19.7724 11.36 16.9824 13.872 15.0424C12.6184 14.6553 11.312 14.4664 10 14.4824C2 14.4824 0 20.4824 0 22.4824C0 24.4824 2 24.4824 2 24.4824H10.432ZM9 12.4824C10.3261 12.4824 11.5979 11.9556 12.5355 11.018C13.4732 10.0803 14 8.8085 14 7.48242C14 6.15634 13.4732 4.88457 12.5355 3.94689C11.5979 3.00921 10.3261 2.48242 9 2.48242C7.67392 2.48242 6.40215 3.00921 5.46447 3.94689C4.52678 4.88457 4 6.15634 4 7.48242C4 8.8085 4.52678 10.0803 5.46447 11.018C6.40215 11.9556 7.67392 12.4824 9 12.4824Z" fill="black"/>
</svg>
