<svg width="32" height="33" viewBox="0 0 32 33" fill="none" xmlns="http://www.w3.org/2000/svg">
<path fill-rule="evenodd" clip-rule="evenodd" d="M2.66699 28.4824V9.81576C2.66699 7.30109 2.66699 6.04509 3.44833 5.26376C4.22966 4.48242 5.48566 4.48242 8.00033 4.48242H21.3337C22.443 4.48242 23.3043 4.48242 24.0057 4.51842C22.5378 4.68121 21.1815 5.37966 20.1965 6.48007C19.2114 7.58048 18.6669 9.00554 18.667 10.4824V15.1491L18.535 28.4384L14.667 27.1491L10.667 28.4824L6.66699 27.1491L2.66699 28.4824ZM28.0003 15.1491H21.3337V10.4824C21.3337 9.59837 21.6848 8.75052 22.31 8.1254C22.9351 7.50028 23.7829 7.14909 24.667 7.14909C25.551 7.14909 26.3989 7.50028 27.024 8.1254C27.6491 8.75052 28.0003 9.59837 28.0003 10.4824V15.1491ZM5.33366 9.81576C5.33366 9.46213 5.47413 9.12299 5.72418 8.87295C5.97423 8.6229 6.31337 8.48242 6.66699 8.48242H14.667C15.0206 8.48242 15.3598 8.6229 15.6098 8.87295C15.8598 9.12299 16.0003 9.46213 16.0003 9.81576C16.0003 10.1694 15.8598 10.5085 15.6098 10.7586C15.3598 11.0086 15.0206 11.1491 14.667 11.1491H6.66699C6.31337 11.1491 5.97423 11.0086 5.72418 10.7586C5.47413 10.5085 5.33366 10.1694 5.33366 9.81576ZM5.33366 15.1491C5.33366 14.7955 5.47413 14.4563 5.72418 14.2063C5.97423 13.9562 6.31337 13.8158 6.66699 13.8158H9.33366C9.68728 13.8158 10.0264 13.9562 10.2765 14.2063C10.5265 14.4563 10.667 14.7955 10.667 15.1491C10.667 15.5027 10.5265 15.8418 10.2765 16.0919C10.0264 16.3419 9.68728 16.4824 9.33366 16.4824H6.66699C6.31337 16.4824 5.97423 16.3419 5.72418 16.0919C5.47413 15.8418 5.33366 15.5027 5.33366 15.1491ZM5.33366 20.4824C5.33366 20.1288 5.47413 19.7897 5.72418 19.5396C5.97423 19.2896 6.31337 19.1491 6.66699 19.1491H12.0003C12.3539 19.1491 12.6931 19.2896 12.9431 19.5396C13.1932 19.7897 13.3337 20.1288 13.3337 20.4824C13.3337 20.836 13.1932 21.1752 12.9431 21.4252C12.6931 21.6753 12.3539 21.8158 12.0003 21.8158H6.66699C6.31337 21.8158 5.97423 21.6753 5.72418 21.4252C5.47413 21.1752 5.33366 20.836 5.33366 20.4824Z" fill="black"/>
</svg>
