<svg width="185" height="61" viewBox="0 0 185 61" fill="none" xmlns="http://www.w3.org/2000/svg">
<rect width="185" height="61" rx="5" fill="black" fill-opacity="0.6"/>
<path d="M65.538 24.087V23.008H69.633V28H68.814L68.515 26.791C67.878 27.675 66.708 28.247 65.434 28.247C63.835 28.247 63.055 27.662 62.574 27.194C61.144 25.842 61.105 24.243 61.105 23.255C61.105 20.98 62.483 18.419 65.525 18.419C67.267 18.419 69.204 19.407 69.477 21.5H68.255C67.852 19.875 66.487 19.537 65.46 19.537C63.783 19.537 62.405 20.876 62.405 23.32C62.405 25.218 63.029 27.168 65.512 27.168C65.98 27.168 66.734 27.116 67.423 26.57C68.242 25.92 68.45 25.088 68.45 24.087H65.538ZM80.6071 26.882V28H73.7171V18.666H80.5161V19.784H74.9781V22.644H80.0871V23.762H74.9781V26.882H80.6071ZM83.452 19.784V18.666H91.031V19.784H87.872V28H86.611V19.784H83.452ZM101.279 18.666V28H100.018V18.666H101.279ZM104.636 19.784V18.666H112.215V19.784H109.056V28H107.795V19.784H104.636ZM128.326 23.333C128.326 21.136 127.104 19.537 125.076 19.537C123.048 19.537 121.826 21.136 121.826 23.333C121.826 25.53 123.048 27.129 125.076 27.129C127.104 27.129 128.326 25.53 128.326 23.333ZM129.626 23.333C129.626 25.348 128.56 28.247 125.076 28.247C121.592 28.247 120.526 25.348 120.526 23.333C120.526 21.318 121.592 18.419 125.076 18.419C128.56 18.419 129.626 21.318 129.626 23.333ZM139.313 26.206V18.666H140.535V28H139.118L134.373 20.46H134.347V28H133.125V18.666H134.62L139.287 26.206H139.313Z" fill="white"/>
<path d="M64.3672 40.6484H67.2891L65.8516 36.1172L64.3672 40.6484ZM64.5156 33.4844H67.2344L71.3125 45H68.7031L67.9609 42.6328H63.7188L62.9219 45H60.4062L64.5156 33.4844ZM80.4688 40.7422C80.4688 40.0859 80.3177 39.5052 80.0156 39C79.7188 38.4948 79.2344 38.2422 78.5625 38.2422C77.7552 38.2422 77.2005 38.625 76.8984 39.3906C76.7422 39.7969 76.6641 40.3125 76.6641 40.9375C76.6641 41.9271 76.9271 42.6224 77.4531 43.0234C77.7656 43.2578 78.1354 43.375 78.5625 43.375C79.1823 43.375 79.6536 43.1354 79.9766 42.6562C80.3047 42.1771 80.4688 41.5391 80.4688 40.7422ZM79.2031 36.2969C80.1979 36.2969 81.0391 36.6641 81.7266 37.3984C82.4193 38.1328 82.7656 39.2109 82.7656 40.6328C82.7656 42.1328 82.4271 43.276 81.75 44.0625C81.0781 44.849 80.2109 45.2422 79.1484 45.2422C78.4714 45.2422 77.9089 45.0729 77.4609 44.7344C77.2161 44.5469 76.9766 44.2734 76.7422 43.9141V48.3516H74.5391V36.4844H76.6719V37.7422C76.9115 37.3724 77.1667 37.0807 77.4375 36.8672C77.9323 36.487 78.5208 36.2969 79.2031 36.2969ZM92.25 40.7422C92.25 40.0859 92.099 39.5052 91.7969 39C91.5 38.4948 91.0156 38.2422 90.3438 38.2422C89.5365 38.2422 88.9818 38.625 88.6797 39.3906C88.5234 39.7969 88.4453 40.3125 88.4453 40.9375C88.4453 41.9271 88.7083 42.6224 89.2344 43.0234C89.5469 43.2578 89.9167 43.375 90.3438 43.375C90.9635 43.375 91.4349 43.1354 91.7578 42.6562C92.0859 42.1771 92.25 41.5391 92.25 40.7422ZM90.9844 36.2969C91.9792 36.2969 92.8203 36.6641 93.5078 37.3984C94.2005 38.1328 94.5469 39.2109 94.5469 40.6328C94.5469 42.1328 94.2083 43.276 93.5312 44.0625C92.8594 44.849 91.9922 45.2422 90.9297 45.2422C90.2526 45.2422 89.6901 45.0729 89.2422 44.7344C88.9974 44.5469 88.7578 44.2734 88.5234 43.9141V48.3516H86.3203V36.4844H88.4531V37.7422C88.6927 37.3724 88.9479 37.0807 89.2188 36.8672C89.7135 36.487 90.3021 36.2969 90.9844 36.2969ZM106.539 41.4453C106.612 41.9714 106.755 42.3646 106.969 42.625C107.359 43.099 108.029 43.3359 108.977 43.3359C109.544 43.3359 110.005 43.2734 110.359 43.1484C111.031 42.9089 111.367 42.4635 111.367 41.8125C111.367 41.4323 111.201 41.138 110.867 40.9297C110.534 40.7266 110.01 40.5469 109.297 40.3906L108.078 40.1172C106.88 39.8464 106.052 39.5521 105.594 39.2344C104.818 38.7031 104.43 37.8724 104.43 36.7422C104.43 35.7109 104.805 34.8542 105.555 34.1719C106.305 33.4896 107.406 33.1484 108.859 33.1484C110.073 33.1484 111.107 33.4714 111.961 34.1172C112.82 34.7578 113.271 35.6901 113.312 36.9141H111C110.958 36.2214 110.656 35.7292 110.094 35.4375C109.719 35.2448 109.253 35.1484 108.695 35.1484C108.076 35.1484 107.581 35.2734 107.211 35.5234C106.841 35.7734 106.656 36.1224 106.656 36.5703C106.656 36.9818 106.839 37.2891 107.203 37.4922C107.438 37.6276 107.938 37.7865 108.703 37.9688L110.688 38.4453C111.557 38.6536 112.214 38.9323 112.656 39.2812C113.344 39.8229 113.688 40.6068 113.688 41.6328C113.688 42.6849 113.284 43.5599 112.477 44.2578C111.674 44.9505 110.539 45.2969 109.07 45.2969C107.57 45.2969 106.391 44.9557 105.531 44.2734C104.672 43.5859 104.242 42.6432 104.242 41.4453H106.539ZM116.414 38.1484V36.5625H117.602V34.1875H119.805V36.5625H121.188V38.1484H119.805V42.6484C119.805 42.9974 119.849 43.2161 119.938 43.3047C120.026 43.388 120.297 43.4297 120.75 43.4297C120.818 43.4297 120.888 43.4297 120.961 43.4297C121.039 43.4245 121.115 43.4193 121.188 43.4141V45.0781L120.133 45.1172C119.081 45.1536 118.362 44.9714 117.977 44.5703C117.727 44.3151 117.602 43.9219 117.602 43.3906V38.1484H116.414ZM128.438 43.4297C129.089 43.4297 129.589 43.1979 129.938 42.7344C130.286 42.2708 130.461 41.612 130.461 40.7578C130.461 39.9036 130.286 39.2474 129.938 38.7891C129.589 38.3255 129.089 38.0938 128.438 38.0938C127.786 38.0938 127.284 38.3255 126.93 38.7891C126.581 39.2474 126.406 39.9036 126.406 40.7578C126.406 41.612 126.581 42.2708 126.93 42.7344C127.284 43.1979 127.786 43.4297 128.438 43.4297ZM132.797 40.7578C132.797 42.0078 132.438 43.0781 131.719 43.9688C131 44.8542 129.909 45.2969 128.445 45.2969C126.982 45.2969 125.891 44.8542 125.172 43.9688C124.453 43.0781 124.094 42.0078 124.094 40.7578C124.094 39.5286 124.453 38.4635 125.172 37.5625C125.891 36.6615 126.982 36.2109 128.445 36.2109C129.909 36.2109 131 36.6615 131.719 37.5625C132.438 38.4635 132.797 39.5286 132.797 40.7578ZM141.023 36.2812C141.065 36.2812 141.099 36.2839 141.125 36.2891C141.156 36.2891 141.221 36.2917 141.32 36.2969V38.5781C141.18 38.5625 141.055 38.5521 140.945 38.5469C140.836 38.5417 140.747 38.5391 140.68 38.5391C139.784 38.5391 139.182 38.8307 138.875 39.4141C138.703 39.7422 138.617 40.2474 138.617 40.9297V45H136.375V36.4844H138.5V37.9688C138.844 37.401 139.143 37.013 139.398 36.8047C139.815 36.4557 140.357 36.2812 141.023 36.2812ZM147.992 38.0938C147.477 38.0938 147.076 38.2552 146.789 38.5781C146.508 38.901 146.331 39.3385 146.258 39.8906H149.719C149.682 39.3021 149.503 38.8568 149.18 38.5547C148.862 38.2474 148.466 38.0938 147.992 38.0938ZM147.992 36.2578C148.701 36.2578 149.339 36.3906 149.906 36.6562C150.474 36.9219 150.943 37.3411 151.312 37.9141C151.646 38.4193 151.862 39.0052 151.961 39.6719C152.018 40.0625 152.042 40.625 152.031 41.3594H146.203C146.234 42.2135 146.503 42.8125 147.008 43.1562C147.315 43.3698 147.685 43.4766 148.117 43.4766C148.576 43.4766 148.948 43.3464 149.234 43.0859C149.391 42.9453 149.529 42.75 149.648 42.5H151.922C151.865 43.0052 151.602 43.5182 151.133 44.0391C150.404 44.8672 149.383 45.2812 148.07 45.2812C146.987 45.2812 146.031 44.9323 145.203 44.2344C144.375 43.5365 143.961 42.401 143.961 40.8281C143.961 39.3542 144.333 38.224 145.078 37.4375C145.828 36.651 146.799 36.2578 147.992 36.2578Z" fill="white"/>
<g clip-path="url(#clip0_566_392)">
<path d="M21.884 13H42.116C46.4703 13 50 16.5297 50 20.884V41.116C50 45.4703 46.4703 49 42.116 49H21.884C17.5297 49 14 45.4703 14 41.116V20.884C14 16.5297 17.5297 13 21.884 13Z" fill="url(#paint0_linear_566_392)"/>
<path d="M25.537 39.1299L25.5404 39.131L24.3095 41.2629C23.8602 42.0411 22.8651 42.3078 22.0869 41.8585C21.3088 41.4092 21.0421 40.4141 21.4914 39.6359L22.3981 38.0654L22.4851 37.9146C22.6405 37.6913 23.024 37.3057 23.7911 37.3783C23.7911 37.3783 25.5963 37.5742 25.727 38.5124C25.727 38.5124 25.7447 38.8211 25.537 39.1299ZM42.9946 33.6849H39.1564C38.895 33.6673 38.7809 33.574 38.7359 33.5197L38.7331 33.5148L34.6245 26.3983L34.6191 26.4018L34.3727 26.0486C33.9689 25.4309 33.3276 27.0104 33.3276 27.0104C32.5619 28.7705 33.4363 30.7714 33.7411 31.3763L39.4479 41.2608C39.8971 42.0389 40.8921 42.3057 41.6705 41.8562C42.4486 41.4069 42.7153 40.4119 42.2659 39.6336L40.839 37.162C40.8113 37.1021 40.7632 36.9395 41.0558 36.9388H42.9946C43.8932 36.9388 44.6216 36.2104 44.6216 35.3118C44.6216 34.4132 43.8932 33.6849 42.9946 33.6849ZM35.5395 35.8965C35.5395 35.8965 35.7444 36.9387 34.9517 36.9387H20.7628C19.8642 36.9387 19.1357 36.2103 19.1357 35.3117C19.1357 34.4131 19.8642 33.6846 20.7628 33.6846H24.4106C24.9995 33.6506 25.139 33.3106 25.139 33.3106L25.1424 33.3123L29.904 25.0649L29.9026 25.0646C29.9893 24.9053 29.917 24.7547 29.9045 24.7309L28.3319 22.0071C27.8826 21.2291 28.1492 20.2339 28.9275 19.7847C29.7057 19.3354 30.7007 19.6019 31.15 20.3801L31.8793 21.6433L32.6073 20.3824C33.0566 19.6043 34.0517 19.3375 34.8299 19.7869C35.6081 20.2362 35.8748 21.2312 35.4255 22.0094L28.7995 33.4858C28.7705 33.5557 28.7617 33.6654 28.9772 33.6846H32.9378L32.9386 33.7233C32.9386 33.7233 35.2277 33.7589 35.5395 35.8965Z" fill="white"/>
</g>
<defs>
<linearGradient id="paint0_linear_566_392" x1="1814" y1="13" x2="1814" y2="3613" gradientUnits="userSpaceOnUse">
<stop stop-color="#17C9FB"/>
<stop offset="1" stop-color="#1A74E8"/>
</linearGradient>
<clipPath id="clip0_566_392">
<rect width="36" height="36" fill="white" transform="translate(14 13)"/>
</clipPath>
</defs>
</svg>
