<svg width="82" height="81" viewBox="0 0 82 81" fill="none" xmlns="http://www.w3.org/2000/svg">
<rect x="1" y="0.5" width="79" height="79" rx="39.5" stroke="#032C77" stroke-dasharray="3 2"/>
<rect x="2" y="1.5" width="79" height="79" rx="39.5" stroke="#032C77" stroke-dasharray="3 2"/>
<g clip-path="url(#clip0_2_4000)">
<path d="M40.4191 25L56.7081 31.5156V33.6875H54.5362C54.5362 33.9816 54.4202 34.2361 54.1884 34.451C53.9565 34.6659 53.6822 34.7734 53.3654 34.7734H27.4727C27.156 34.7734 26.8817 34.6659 26.6498 34.451C26.4179 34.2361 26.3019 33.9816 26.3019 33.6875H24.1301V31.5156L40.4191 25ZM28.4738 35.8593H32.8175V48.8905H34.9894V35.8593H39.3331V48.8905H41.505V35.8593H45.8487V48.8905H48.0206V35.8593H52.3643V48.8905H53.3654C53.6822 48.8905 53.9565 48.998 54.1884 49.2129C54.4202 49.4278 54.5362 49.6824 54.5362 49.9765V51.0624H26.3019V49.9765C26.3019 49.6824 26.4179 49.4278 26.6498 49.2129C26.8817 48.998 27.156 48.8905 27.4727 48.8905H28.4738V35.8593ZM55.5373 52.1483C55.854 52.1483 56.1283 52.2558 56.3602 52.4707C56.5921 52.6856 56.7081 52.9402 56.7081 53.2343V55.4061H24.1301V53.2343C24.1301 52.9402 24.246 52.6856 24.4779 52.4707C24.7098 52.2558 24.9841 52.1483 25.3008 52.1483H55.5373Z" fill="#032C77"/>
</g>
<defs>
<clipPath id="clip0_2_4000">
<rect width="34.75" height="31" fill="white" transform="matrix(1 0 0 -1 24.13 56)"/>
</clipPath>
</defs>
</svg>
