<svg width="185" height="61" viewBox="0 0 185 61" fill="none" xmlns="http://www.w3.org/2000/svg">
<rect width="185" height="61" rx="5" fill="black" fill-opacity="0.6"/>
<g clip-path="url(#clip0_566_398)">
<path d="M28.9446 30.1621L14.1396 45.9544C14.3059 46.5543 14.6047 47.1075 15.0131 47.5718C15.4216 48.0361 15.9289 48.3992 16.4963 48.6333C17.0637 48.8674 17.6761 48.9663 18.2868 48.9224C18.8975 48.8786 19.4902 48.6932 20.0198 48.3804L36.6782 38.7209L28.9446 30.1621Z" fill="#EA4335"/>
<path d="M43.9148 27.4783L36.7111 23.2773L28.6025 30.5219L36.7441 38.6988L43.8929 34.5429C44.5262 34.2053 45.0567 33.6976 45.4268 33.075C45.7969 32.4523 45.9926 31.7384 45.9926 31.0105C45.9926 30.2827 45.7969 29.5688 45.4268 28.9461C45.0567 28.3234 44.5262 27.8158 43.8929 27.4781L43.9148 27.4783Z" fill="#FBBC04"/>
<path d="M14.1398 15.9873C14.0503 16.3241 14.0058 16.6717 14.0074 17.0206V44.9209C14.0083 45.2697 14.0528 45.6169 14.1398 45.9543L29.4523 30.5664L14.1398 15.9873Z" fill="#4285F4"/>
<path d="M29.0549 30.9713L36.7113 23.2773L20.075 13.5728C19.4491 13.1996 18.7372 13.002 18.0118 13C16.2117 12.9964 14.6292 14.2128 14.1396 15.9766L29.0549 30.9713Z" fill="#34A853"/>
</g>
<path d="M61.538 24.087V23.008H65.633V28H64.814L64.515 26.791C63.878 27.675 62.708 28.247 61.434 28.247C59.835 28.247 59.055 27.662 58.574 27.194C57.144 25.842 57.105 24.243 57.105 23.255C57.105 20.98 58.483 18.419 61.525 18.419C63.267 18.419 65.204 19.407 65.477 21.5H64.255C63.852 19.875 62.487 19.537 61.46 19.537C59.783 19.537 58.405 20.876 58.405 23.32C58.405 25.218 59.029 27.168 61.512 27.168C61.98 27.168 62.734 27.116 63.423 26.57C64.242 25.92 64.45 25.088 64.45 24.087H61.538ZM76.6071 26.882V28H69.7171V18.666H76.5161V19.784H70.9781V22.644H76.0871V23.762H70.9781V26.882H76.6071ZM79.452 19.784V18.666H87.031V19.784H83.872V28H82.611V19.784H79.452ZM97.2794 18.666V28H96.0184V18.666H97.2794ZM100.636 19.784V18.666H108.215V19.784H105.056V28H103.795V19.784H100.636ZM124.326 23.333C124.326 21.136 123.104 19.537 121.076 19.537C119.048 19.537 117.826 21.136 117.826 23.333C117.826 25.53 119.048 27.129 121.076 27.129C123.104 27.129 124.326 25.53 124.326 23.333ZM125.626 23.333C125.626 25.348 124.56 28.247 121.076 28.247C117.592 28.247 116.526 25.348 116.526 23.333C116.526 21.318 117.592 18.419 121.076 18.419C124.56 18.419 125.626 21.318 125.626 23.333ZM135.313 26.206V18.666H136.535V28H135.118L130.373 20.46H130.347V28H129.125V18.666H130.62L135.287 26.206H135.313Z" fill="white"/>
<path d="M63.7031 37.1484C63.7031 36.5495 63.5443 36.1224 63.2266 35.8672C62.9141 35.612 62.474 35.4844 61.9062 35.4844H59.6641V38.875H61.9062C62.474 38.875 62.9141 38.737 63.2266 38.4609C63.5443 38.1849 63.7031 37.7474 63.7031 37.1484ZM66.0859 37.1328C66.0859 38.4922 65.7422 39.4531 65.0547 40.0156C64.3672 40.5781 63.3854 40.8594 62.1094 40.8594H59.6641V45H57.2734V33.4844H62.2891C63.4453 33.4844 64.3672 33.7812 65.0547 34.375C65.7422 34.9688 66.0859 35.888 66.0859 37.1328ZM71.9844 45H69.7578V33.4844H71.9844V45ZM80.8594 40.8594C80.7188 40.9479 80.5755 41.0208 80.4297 41.0781C80.2891 41.1302 80.0938 41.1797 79.8438 41.2266L79.3438 41.3203C78.875 41.4036 78.5391 41.5052 78.3359 41.625C77.9922 41.8281 77.8203 42.1432 77.8203 42.5703C77.8203 42.9505 77.9245 43.2266 78.1328 43.3984C78.3464 43.5651 78.6042 43.6484 78.9062 43.6484C79.3854 43.6484 79.8255 43.5078 80.2266 43.2266C80.6328 42.9453 80.8438 42.4323 80.8594 41.6875V40.8594ZM79.5078 39.8203C79.9193 39.7682 80.2135 39.7031 80.3906 39.625C80.7083 39.4896 80.8672 39.2786 80.8672 38.9922C80.8672 38.6432 80.7448 38.4036 80.5 38.2734C80.2604 38.138 79.9062 38.0703 79.4375 38.0703C78.9115 38.0703 78.5391 38.2005 78.3203 38.4609C78.1641 38.6536 78.0599 38.9141 78.0078 39.2422H75.8594C75.9062 38.4974 76.1146 37.8854 76.4844 37.4062C77.0729 36.6562 78.0833 36.2812 79.5156 36.2812C80.4479 36.2812 81.276 36.4661 82 36.8359C82.724 37.2057 83.0859 37.9036 83.0859 38.9297V42.8359C83.0859 43.1068 83.0911 43.4349 83.1016 43.8203C83.1172 44.112 83.1615 44.3099 83.2344 44.4141C83.3073 44.5182 83.4167 44.6042 83.5625 44.6719V45H81.1406C81.0729 44.8281 81.026 44.6667 81 44.5156C80.974 44.3646 80.9531 44.1927 80.9375 44C80.6302 44.3333 80.276 44.6172 79.875 44.8516C79.3958 45.1276 78.8542 45.2656 78.25 45.2656C77.4792 45.2656 76.8411 45.0469 76.3359 44.6094C75.8359 44.1667 75.5859 43.5417 75.5859 42.7344C75.5859 41.6875 75.9896 40.9297 76.7969 40.4609C77.2396 40.2057 77.8906 40.0234 78.75 39.9141L79.5078 39.8203ZM87.4141 46.6328L87.6953 46.6484C87.9141 46.6589 88.1224 46.651 88.3203 46.625C88.5182 46.599 88.6849 46.5391 88.8203 46.4453C88.9505 46.3568 89.0703 46.1719 89.1797 45.8906C89.2943 45.6094 89.3411 45.4375 89.3203 45.375L86.1953 36.4844H88.6719L90.5312 42.7656L92.2891 36.4844H94.6562L91.7344 44.8594C91.1719 46.474 90.7266 47.474 90.3984 47.8594C90.0703 48.25 89.4141 48.4453 88.4297 48.4453C88.2318 48.4453 88.0729 48.4427 87.9531 48.4375C87.8333 48.4375 87.6536 48.4297 87.4141 48.4141V46.6328ZM106.352 41.4453C106.424 41.9714 106.568 42.3646 106.781 42.625C107.172 43.099 107.841 43.3359 108.789 43.3359C109.357 43.3359 109.818 43.2734 110.172 43.1484C110.844 42.9089 111.18 42.4635 111.18 41.8125C111.18 41.4323 111.013 41.138 110.68 40.9297C110.346 40.7266 109.823 40.5469 109.109 40.3906L107.891 40.1172C106.693 39.8464 105.865 39.5521 105.406 39.2344C104.63 38.7031 104.242 37.8724 104.242 36.7422C104.242 35.7109 104.617 34.8542 105.367 34.1719C106.117 33.4896 107.219 33.1484 108.672 33.1484C109.885 33.1484 110.919 33.4714 111.773 34.1172C112.633 34.7578 113.083 35.6901 113.125 36.9141H110.812C110.771 36.2214 110.469 35.7292 109.906 35.4375C109.531 35.2448 109.065 35.1484 108.508 35.1484C107.888 35.1484 107.393 35.2734 107.023 35.5234C106.654 35.7734 106.469 36.1224 106.469 36.5703C106.469 36.9818 106.651 37.2891 107.016 37.4922C107.25 37.6276 107.75 37.7865 108.516 37.9688L110.5 38.4453C111.37 38.6536 112.026 38.9323 112.469 39.2812C113.156 39.8229 113.5 40.6068 113.5 41.6328C113.5 42.6849 113.096 43.5599 112.289 44.2578C111.487 44.9505 110.352 45.2969 108.883 45.2969C107.383 45.2969 106.203 44.9557 105.344 44.2734C104.484 43.5859 104.055 42.6432 104.055 41.4453H106.352ZM116.227 38.1484V36.5625H117.414V34.1875H119.617V36.5625H121V38.1484H119.617V42.6484C119.617 42.9974 119.661 43.2161 119.75 43.3047C119.839 43.388 120.109 43.4297 120.562 43.4297C120.63 43.4297 120.701 43.4297 120.773 43.4297C120.852 43.4245 120.927 43.4193 121 43.4141V45.0781L119.945 45.1172C118.893 45.1536 118.174 44.9714 117.789 44.5703C117.539 44.3151 117.414 43.9219 117.414 43.3906V38.1484H116.227ZM128.25 43.4297C128.901 43.4297 129.401 43.1979 129.75 42.7344C130.099 42.2708 130.273 41.612 130.273 40.7578C130.273 39.9036 130.099 39.2474 129.75 38.7891C129.401 38.3255 128.901 38.0938 128.25 38.0938C127.599 38.0938 127.096 38.3255 126.742 38.7891C126.393 39.2474 126.219 39.9036 126.219 40.7578C126.219 41.612 126.393 42.2708 126.742 42.7344C127.096 43.1979 127.599 43.4297 128.25 43.4297ZM132.609 40.7578C132.609 42.0078 132.25 43.0781 131.531 43.9688C130.812 44.8542 129.721 45.2969 128.258 45.2969C126.794 45.2969 125.703 44.8542 124.984 43.9688C124.266 43.0781 123.906 42.0078 123.906 40.7578C123.906 39.5286 124.266 38.4635 124.984 37.5625C125.703 36.6615 126.794 36.2109 128.258 36.2109C129.721 36.2109 130.812 36.6615 131.531 37.5625C132.25 38.4635 132.609 39.5286 132.609 40.7578ZM140.836 36.2812C140.878 36.2812 140.911 36.2839 140.938 36.2891C140.969 36.2891 141.034 36.2917 141.133 36.2969V38.5781C140.992 38.5625 140.867 38.5521 140.758 38.5469C140.648 38.5417 140.56 38.5391 140.492 38.5391C139.596 38.5391 138.995 38.8307 138.688 39.4141C138.516 39.7422 138.43 40.2474 138.43 40.9297V45H136.188V36.4844H138.312V37.9688C138.656 37.401 138.956 37.013 139.211 36.8047C139.628 36.4557 140.169 36.2812 140.836 36.2812ZM147.805 38.0938C147.289 38.0938 146.888 38.2552 146.602 38.5781C146.32 38.901 146.143 39.3385 146.07 39.8906H149.531C149.495 39.3021 149.315 38.8568 148.992 38.5547C148.674 38.2474 148.279 38.0938 147.805 38.0938ZM147.805 36.2578C148.513 36.2578 149.151 36.3906 149.719 36.6562C150.286 36.9219 150.755 37.3411 151.125 37.9141C151.458 38.4193 151.674 39.0052 151.773 39.6719C151.831 40.0625 151.854 40.625 151.844 41.3594H146.016C146.047 42.2135 146.315 42.8125 146.82 43.1562C147.128 43.3698 147.497 43.4766 147.93 43.4766C148.388 43.4766 148.76 43.3464 149.047 43.0859C149.203 42.9453 149.341 42.75 149.461 42.5H151.734C151.677 43.0052 151.414 43.5182 150.945 44.0391C150.216 44.8672 149.195 45.2812 147.883 45.2812C146.799 45.2812 145.844 44.9323 145.016 44.2344C144.188 43.5365 143.773 42.401 143.773 40.8281C143.773 39.3542 144.146 38.224 144.891 37.4375C145.641 36.651 146.612 36.2578 147.805 36.2578Z" fill="white"/>
<defs>
<clipPath id="clip0_566_398">
<rect width="32" height="36" fill="white" transform="translate(14 13)"/>
</clipPath>
</defs>
</svg>
