<svg width="21" height="21" viewBox="0 0 21 21" fill="none" xmlns="http://www.w3.org/2000/svg">
<g clip-path="url(#clip0_260_1423)">
<path d="M18.375 14.875V7H6.125V14.875H18.375ZM18.375 2.625C18.8391 2.625 19.2842 2.80937 19.6124 3.13756C19.9406 3.46575 20.125 3.91087 20.125 4.375V14.875C20.125 15.3391 19.9406 15.7842 19.6124 16.1124C19.2842 16.4406 18.8391 16.625 18.375 16.625H6.125C5.66087 16.625 5.21575 16.4406 4.88756 16.1124C4.55937 15.7842 4.375 15.3391 4.375 14.875V4.375C4.375 3.91087 4.55937 3.46575 4.88756 3.13756C5.21575 2.80937 5.66087 2.625 6.125 2.625H7V0.875H8.75V2.625H15.75V0.875H17.5V2.625H18.375ZM2.625 18.375H14.875V20.125H2.625C2.16087 20.125 1.71575 19.9406 1.38756 19.6124C1.05937 19.2842 0.875 18.8391 0.875 18.375V7.875H2.625V18.375ZM16.625 13.125H13.125V9.625H16.625V13.125Z" fill="#007DFF"/>
</g>
<defs>
<clipPath id="clip0_260_1423">
<rect width="21" height="21" fill="white"/>
</clipPath>
</defs>
</svg>
