<svg width="21" height="21" viewBox="0 0 21 21" fill="none" xmlns="http://www.w3.org/2000/svg">
<g clip-path="url(#clip0_260_1428)">
<path d="M10.5 10.4996L2.667 7.37061L3.15 18.8996H1.05L1.554 6.91911L0 6.29961L10.5 2.09961L21 6.29961L10.5 10.4996ZM10.5 5.24961C9.9225 5.24961 9.45 5.48061 9.45 5.77461C9.45 6.06861 9.9225 6.29961 10.5 6.29961C11.0775 6.29961 11.55 6.06861 11.55 5.77461C11.55 5.48061 11.0775 5.24961 10.5 5.24961ZM10.5 11.5496L16.3485 9.20811C17.094 10.1951 17.6085 11.3816 17.7765 12.6731C17.4615 12.6311 17.136 12.5996 16.8 12.5996C14.1225 12.5996 11.781 14.0381 10.5 16.1801C9.84979 15.0889 8.92735 14.1852 7.823 13.5576C6.71865 12.93 5.47024 12.5999 4.2 12.5996C3.864 12.5996 3.5385 12.6311 3.2235 12.6731C3.3915 11.3816 3.906 10.1951 4.6515 9.20811L10.5 11.5496Z" fill="#007DFF"/>
</g>
<defs>
<clipPath id="clip0_260_1428">
<rect width="21" height="21" fill="white"/>
</clipPath>
</defs>
</svg>
