<svg width="21" height="17" viewBox="0 0 21 17" fill="none" xmlns="http://www.w3.org/2000/svg">
<g clip-path="url(#clip0_257_1316)">
<path d="M10.3287 -0.000501633L19.7445 3.57257V4.76359H18.489C18.489 4.92488 18.422 5.06445 18.288 5.18231C18.1539 5.30017 17.9954 5.3591 17.8123 5.3591H2.84521C2.66213 5.3591 2.50356 5.30017 2.36952 5.18231C2.23548 5.06445 2.16845 4.92488 2.16845 4.76359H0.913025V3.57257L10.3287 -0.000501633ZM3.42388 5.95462H5.93474V13.1008H7.19017V5.95462H9.70103V13.1008H10.9565V5.95462H13.4673V13.1008H14.7228V5.95462H17.2336V13.1008H17.8123C17.9954 13.1008 18.1539 13.1597 18.288 13.2775C18.422 13.3954 18.489 13.535 18.489 13.6963V14.2918H2.16845V13.6963C2.16845 13.535 2.23548 13.3954 2.36952 13.2775C2.50356 13.1597 2.66213 13.1008 2.84521 13.1008H3.42388V5.95462ZM19.0677 14.8873C19.2508 14.8873 19.4094 14.9462 19.5434 15.0641C19.6775 15.1819 19.7445 15.3215 19.7445 15.4828V16.6738H0.913025V15.4828C0.913025 15.3215 0.980047 15.1819 1.11409 15.0641C1.24813 14.9462 1.4067 14.8873 1.58978 14.8873H19.0677Z" fill="#007DFF"/>
</g>
<defs>
<clipPath id="clip0_257_1316">
<rect width="21" height="17" fill="white" transform="matrix(1 0 0 -1 0 17)"/>
</clipPath>
</defs>
</svg>
