<svg width="21" height="21" viewBox="0 0 21 21" fill="none" xmlns="http://www.w3.org/2000/svg">
<path d="M3.9375 2.625H17.0625C18.5102 2.625 19.6875 3.80231 19.6875 5.25V13.125C19.6875 14.5727 18.5102 15.75 17.0625 15.75H8.68875C9.25554 15.2621 9.71066 14.6579 10.0232 13.9785C10.3357 13.2991 10.4983 12.5604 10.5 11.8125C10.4983 11.0646 10.3357 10.3259 10.0232 9.64649C9.71066 8.96708 9.25554 8.36289 8.68875 7.875H15.0938C15.2678 7.875 15.4347 7.80586 15.5578 7.68279C15.6809 7.55972 15.75 7.3928 15.75 7.21875C15.75 7.0447 15.6809 6.87778 15.5578 6.75471C15.4347 6.63164 15.2678 6.5625 15.0938 6.5625H5.25C4.50215 6.56416 3.76341 6.72678 3.08399 7.03931C2.40458 7.35184 1.80039 7.80696 1.3125 8.37375V5.25C1.3125 3.80231 2.48981 2.625 3.9375 2.625ZM12.4688 11.8125H15.0938C15.2678 11.8125 15.4347 11.7434 15.5578 11.6203C15.6809 11.4972 15.75 11.3303 15.75 11.1562C15.75 10.9822 15.6809 10.8153 15.5578 10.6922C15.4347 10.5691 15.2678 10.5 15.0938 10.5H12.4688C12.2947 10.5 12.1278 10.5691 12.0047 10.6922C11.8816 10.8153 11.8125 10.9822 11.8125 11.1562C11.8125 11.3303 11.8816 11.4972 12.0047 11.6203C12.1278 11.7434 12.2947 11.8125 12.4688 11.8125ZM5.25 15.75C6.29429 15.75 7.29581 15.3352 8.03423 14.5967C8.77266 13.8583 9.1875 12.8568 9.1875 11.8125C9.1875 10.7682 8.77266 9.76669 8.03423 9.02827C7.29581 8.28984 6.29429 7.875 5.25 7.875C4.20571 7.875 3.20419 8.28984 2.46577 9.02827C1.72734 9.76669 1.3125 10.7682 1.3125 11.8125C1.3125 12.8568 1.72734 13.8583 2.46577 14.5967C3.20419 15.3352 4.20571 15.75 5.25 15.75ZM2.625 19.0312V16.3314C3.41954 16.8038 4.32568 17.0557 5.25 17.0612C6.21075 17.0612 7.09931 16.7829 7.875 16.3314V19.0299C7.87505 19.1487 7.84284 19.2653 7.78182 19.3673C7.72079 19.4692 7.63324 19.5527 7.5285 19.6087C7.42391 19.6649 7.30606 19.6916 7.18749 19.6861C7.06892 19.6805 6.95408 19.6429 6.85519 19.5773L5.25 18.5063L3.64481 19.5759C3.54638 19.6431 3.43145 19.682 3.31248 19.6884C3.19352 19.6948 3.07506 19.6685 2.96997 19.6124C2.86488 19.5563 2.77717 19.4724 2.71636 19.37C2.65554 19.2675 2.62395 19.1504 2.625 19.0312Z" fill="#007DFF"/>
</svg>
