<svg width="73" height="73" viewBox="0 0 73 73" fill="none" xmlns="http://www.w3.org/2000/svg">
<g filter="url(#filter0_di_56_2789)">
<rect x="14" y="10" width="45" height="45" rx="22.5" fill="white"/>
<path d="M43.1406 20H29.8594C26.6233 20 24 22.6233 24 25.8594V39.1406C24 42.3767 26.6233 45 29.8594 45H43.1406C46.3767 45 49 42.3767 49 39.1406V25.8594C49 22.6233 46.3767 20 43.1406 20Z" fill="url(#paint0_radial_56_2789)"/>
<path d="M43.1406 20H29.8594C26.6233 20 24 22.6233 24 25.8594V39.1406C24 42.3767 26.6233 45 29.8594 45H43.1406C46.3767 45 49 42.3767 49 39.1406V25.8594C49 22.6233 46.3767 20 43.1406 20Z" fill="url(#paint1_radial_56_2789)"/>
<path d="M36.5009 22.7344C33.8487 22.7344 33.5158 22.746 32.4742 22.7934C31.4346 22.841 30.7249 23.0056 30.104 23.2471C29.4616 23.4965 28.9168 23.8302 28.374 24.3731C27.8308 24.916 27.4971 25.4608 27.2469 26.1029C27.0047 26.724 26.8399 27.434 26.7932 28.4731C26.7466 29.5148 26.7344 29.8479 26.7344 32.5001C26.7344 35.1523 26.7461 35.4842 26.7934 36.5258C26.8412 37.5654 27.0058 38.2751 27.2471 38.896C27.4967 39.5384 27.8304 40.0832 28.3733 40.626C28.916 41.1692 29.4608 41.5037 30.1027 41.7531C30.7241 41.9946 31.4339 42.1592 32.4733 42.2068C33.515 42.2542 33.8477 42.2658 36.4997 42.2658C39.1521 42.2658 39.484 42.2542 40.5256 42.2068C41.5652 42.1592 42.2757 41.9946 42.8971 41.7531C43.5392 41.5037 44.0832 41.1692 44.6258 40.626C45.169 40.0832 45.5026 39.5384 45.7529 38.8963C45.993 38.2751 46.1578 37.5652 46.2066 36.526C46.2534 35.4844 46.2656 35.1523 46.2656 32.5001C46.2656 29.8479 46.2534 29.515 46.2066 28.4733C46.1578 27.4337 45.993 26.7241 45.7529 26.1032C45.5026 25.4608 45.169 24.916 44.6258 24.3731C44.0826 23.83 43.5394 23.4963 42.8965 23.2472C42.2739 23.0056 41.5639 22.8409 40.5242 22.7934C39.4825 22.746 39.1509 22.7344 36.4979 22.7344H36.5009ZM35.6248 24.4942C35.8849 24.4938 36.175 24.4942 36.5009 24.4942C39.1084 24.4942 39.4174 24.5036 40.4471 24.5504C41.3992 24.5939 41.916 24.753 42.2603 24.8867C42.716 25.0637 43.0409 25.2753 43.3825 25.6172C43.7243 25.959 43.9358 26.2845 44.1133 26.7402C44.247 27.084 44.4062 27.6008 44.4496 28.5529C44.4964 29.5824 44.5065 29.8916 44.5065 32.4979C44.5065 35.1041 44.4964 35.4134 44.4496 36.4428C44.4061 37.3949 44.247 37.9117 44.1133 38.2556C43.9363 38.7113 43.7243 39.0358 43.3825 39.3774C43.0407 39.7192 42.7162 39.9308 42.2603 40.1078C41.9164 40.2421 41.3992 40.4008 40.4471 40.4443C39.4176 40.4911 39.1084 40.5013 36.5009 40.5013C33.8933 40.5013 33.5842 40.4911 32.5548 40.4443C31.6026 40.4004 31.0858 40.2413 30.7413 40.1076C30.2856 39.9306 29.9601 39.719 29.6183 39.3772C29.2765 39.0354 29.0649 38.7107 28.8875 38.2548C28.7538 37.9109 28.5945 37.3941 28.5512 36.442C28.5044 35.4125 28.495 35.1033 28.495 32.4954C28.495 29.8876 28.5044 29.58 28.5512 28.5505C28.5947 27.5983 28.7538 27.0815 28.8875 26.7373C29.0646 26.2815 29.2765 25.9561 29.6184 25.6143C29.9602 25.2725 30.2856 25.0608 30.7414 24.8835C31.0856 24.7492 31.6026 24.5905 32.5548 24.5468C33.4557 24.5061 33.8048 24.4938 35.6248 24.4918V24.4942ZM41.7138 26.1157C41.0668 26.1157 40.5419 26.6401 40.5419 27.2872C40.5419 27.9342 41.0668 28.4591 41.7138 28.4591C42.3607 28.4591 42.8856 27.9342 42.8856 27.2872C42.8856 26.6402 42.3607 26.1153 41.7138 26.1153V26.1157ZM36.5009 27.485C33.7313 27.485 31.4858 29.7305 31.4858 32.5001C31.4858 35.2697 33.7313 37.5142 36.5009 37.5142C39.2705 37.5142 41.5152 35.2697 41.5152 32.5001C41.5152 29.7306 39.2703 27.485 36.5007 27.485H36.5009ZM36.5009 29.2448C38.2986 29.2448 39.7562 30.7021 39.7562 32.5001C39.7562 34.2979 38.2986 35.7554 36.5009 35.7554C34.703 35.7554 33.2457 34.2979 33.2457 32.5001C33.2457 30.7021 34.703 29.2448 36.5009 29.2448Z" fill="white"/>
</g>
<defs>
<filter id="filter0_di_56_2789" x="0" y="0" width="73" height="73" filterUnits="userSpaceOnUse" color-interpolation-filters="sRGB">
<feFlood flood-opacity="0" result="BackgroundImageFix"/>
<feColorMatrix in="SourceAlpha" type="matrix" values="0 0 0 0 0 0 0 0 0 0 0 0 0 0 0 0 0 0 127 0" result="hardAlpha"/>
<feOffset dy="4"/>
<feGaussianBlur stdDeviation="7"/>
<feComposite in2="hardAlpha" operator="out"/>
<feColorMatrix type="matrix" values="0 0 0 0 0 0 0 0 0 0 0 0 0 0 0 0 0 0 0.15 0"/>
<feBlend mode="normal" in2="BackgroundImageFix" result="effect1_dropShadow_56_2789"/>
<feBlend mode="normal" in="SourceGraphic" in2="effect1_dropShadow_56_2789" result="shape"/>
<feColorMatrix in="SourceAlpha" type="matrix" values="0 0 0 0 0 0 0 0 0 0 0 0 0 0 0 0 0 0 127 0" result="hardAlpha"/>
<feOffset dy="4"/>
<feGaussianBlur stdDeviation="2"/>
<feComposite in2="hardAlpha" operator="arithmetic" k2="-1" k3="1"/>
<feColorMatrix type="matrix" values="0 0 0 0 0 0 0 0 0 0 0 0 0 0 0 0 0 0 0.07 0"/>
<feBlend mode="normal" in2="shape" result="effect2_innerShadow_56_2789"/>
</filter>
<radialGradient id="paint0_radial_56_2789" cx="0" cy="0" r="1" gradientUnits="userSpaceOnUse" gradientTransform="translate(30.6406 46.9255) rotate(-90) scale(24.7769 23.0444)">
<stop stop-color="#FFDD55"/>
<stop offset="0.1" stop-color="#FFDD55"/>
<stop offset="0.5" stop-color="#FF543E"/>
<stop offset="1" stop-color="#C837AB"/>
</radialGradient>
<radialGradient id="paint1_radial_56_2789" cx="0" cy="0" r="1" gradientUnits="userSpaceOnUse" gradientTransform="translate(19.8124 21.8009) rotate(78.681) scale(11.0754 45.6531)">
<stop stop-color="#3771C8"/>
<stop offset="0.128" stop-color="#3771C8"/>
<stop offset="1" stop-color="#6600FF" stop-opacity="0"/>
</radialGradient>
</defs>
</svg>
