<svg width="27" height="25" viewBox="0 0 27 25" fill="none" xmlns="http://www.w3.org/2000/svg">
<g clip-path="url(#clip0_366_989)">
<path d="M26.4293 5.96347C26.2743 5.39068 25.972 4.86849 25.5524 4.44889C25.1328 4.02928 24.6107 3.72692 24.0379 3.5719C21.9409 3 13.5013 3 13.5013 3C13.5013 3 5.0613 3.01731 2.96434 3.58921C2.39154 3.74424 1.86935 4.04662 1.44977 4.46624C1.03018 4.88586 0.72785 5.40808 0.572871 5.98089C-0.0614123 9.70679 -0.307462 15.3842 0.590288 18.9611C0.745283 19.5338 1.04762 20.056 1.46721 20.4756C1.88679 20.8952 2.40897 21.1976 2.98175 21.3526C5.07872 21.9245 13.5185 21.9245 13.5185 21.9245C13.5185 21.9245 21.9582 21.9245 24.0551 21.3526C24.6279 21.1976 25.1501 20.8953 25.5697 20.4757C25.9893 20.0561 26.2916 19.5339 26.4466 18.9611C27.1157 15.2299 27.3218 9.55595 26.4293 5.96347Z" fill="#FF0000"/>
<path d="M10.8149 16.5167L17.8162 12.4615L10.8149 8.40625V16.5167Z" fill="white"/>
</g>
<defs>
<clipPath id="clip0_366_989">
<rect width="27" height="25" fill="white"/>
</clipPath>
</defs>
</svg>
